<?xml version="1.0" encoding="UTF-8"?>
<svg version="1.1" xmlns="http://www.w3.org/2000/svg" width="48" height="48">
<path d="M0 0 C13 0 13 0 16 2 C18.61289494 2.36749389 18.61289494 2.36749389 21.54296875 2.4140625 C22.51000732 2.44967285 23.4770459 2.4852832 24.47338867 2.52197266 C25.69904541 2.55597168 26.92470215 2.5899707 28.1875 2.625 C32.085625 2.74875 35.98375 2.8725 40 3 C40 12.24 40 21.48 40 31 C26.8 31 13.6 31 0 31 C0 20.77 0 10.54 0 0 Z " fill="#4EC2F6" transform="translate(4,9)"/>
<path d="M0 0 C2.10388569 -0.05402274 4.20816714 -0.09280256 6.3125 -0.125 C8.07013672 -0.15980469 8.07013672 -0.15980469 9.86328125 -0.1953125 C13 0 13 0 16 2 C18.61289494 2.36749389 18.61289494 2.36749389 21.54296875 2.4140625 C23.15268555 2.47207031 23.15268555 2.47207031 24.79492188 2.53125 C25.91447266 2.5621875 27.03402344 2.593125 28.1875 2.625 C29.31865234 2.66367188 30.44980469 2.70234375 31.61523438 2.7421875 C34.4099925 2.83652533 37.20474278 2.92211652 40 3 C39.67 3.99 39.34 4.98 39 6 C26.13 6 13.26 6 0 6 C0 4.02 0 2.04 0 0 Z " fill="#0277BD" transform="translate(4,9)"/>
</svg>
