<?xml version="1.0" encoding="UTF-8"?>
<svg id="Layer_2" data-name="Layer 2" xmlns="http://www.w3.org/2000/svg" viewBox="0 0 358.4697 489.2138">
  <defs>
    <style>
      .cls-1 {
        fill: #ffb800;
      }
    </style>
  </defs>
  <g id="katman_1" data-name="katman 1">
    <g>
      <path d="M186.3579,0c4.146,.6672,8.275,1.7157,12.4426,1.9028,4.9299,.2213,9.666,1.2106,14.3025,2.6079,7.2809,2.1942,14.7712,3.4476,22.1091,5.3443,13.029,3.3677,24.6475,9.4555,35.6056,17.3674,9.1602,6.6137,15.8908,15.2562,23.1419,23.5555,3.8718,4.4315,8.1847,8.2949,13.5168,10.991,10.6031,5.3614,18.2175,13.7896,24.0062,23.9952,5.2591,9.2719,8.6624,19.288,12.3565,29.2536,5.0034,13.4975,4.2594,27.4437,5.4156,41.3067,1.4631,17.5438,1.725,35.2269,7.3662,52.2909,4.0254,12.1765,1.0562,24.0109-4.8508,35.0966-4.0804,7.6577-8.7839,14.9766-13.9061,21.9458-9.8096,13.3467-16.2847,27.941-19.0798,44.3158-1.7557,10.2857-6.9986,18.6776-15.5388,25.0238-4.037,2.9999-5.9317,7.5592-5.6258,12.5842,.6281,10.3172-2.6897,19.1085-9.3349,26.8701-4.6745,5.4597-6.8616,12.2358-9.4658,18.7722-.4008,1.0059-.7908,2.0172-1.1466,3.0398-1.5303,4.3973-3.767,8.4303-8.8461,8.9236-6.077,.5903-11.6449-1.077-15.6265-6.1432-1.4611-1.8591-2.6372-3.9421-4.3483-6.5373-2.085,4.8702-3.0038,9.4979-3.0854,14.1391-.2671,15.1725-.1607,30.351-.3389,45.5256-.0701,5.9688-.7917,11.9314-2.2536,17.7076-2.4178,9.5539-7.1837,17.1908-17.7827,19.3349h-4.5539c-1.1329-.3314-2.2545-.7097-3.4005-.9867-8.0306-1.9405-11.849-6.7192-12.0586-15.0595-.2416-9.6153,1.302-19.0436,3.4401-28.336,4.0802-17.7327,.6895-34.646-5.0176-51.3571-.9144-2.6773-2.7098-4.9478-4.6051-7.043-5.0991-5.6372-13.6758-4.7389-17.6819,1.7751-3.1512,5.1239-5.0893,10.7691-6.8893,16.4388-1.9981,6.2935-5.5483,11.4923-10.4155,15.8134-8.4313,7.4855-23.4285,5.1814-27.001-6.9285-1.4001-4.7461-2.1198-9.517-2.0999-14.4019,.0266-6.5175-.1156-13.005-1.4519-19.4141-.6846-3.2832-1.9961-3.894-4.9694-2.2884-3.4835,1.8811-4.9842,5.1377-5.5009,8.7564-1.0897,7.6321-.9444,15.3489-.8915,23.0322,.0704,10.2194-.2461,20.3887-2.9641,30.2999-1.5484,5.6461-3.9587,10.7889-9.8701,13.3489-7.2751,3.1506-14.7123,.899-18.9508-5.8552-3.8967-6.2097-5.9168-13.0466-6.2316-20.2951-.649-14.9415-.9499-29.8399,1.4499-44.7495,1.2135-7.5391,.8275-15.3768-1.0189-22.9484-1.792-7.3485-4.3152-9.4988-11.8686-10.1372-3.8881-.3286-7.7334-.5861-11.5031-1.8497-9.5531-3.2022-15.1801-10.5647-16.2309-20.6423-.9023-8.6541,.1379-17.3391-.9576-25.9789-.9257-7.3006-4.2114-13.2095-9.4697-18.2265-3.291-3.14-7.1568-5.6732-9.995-9.2772-6.5707-8.3433-9.6731-18.1319-9.3833-28.472,.3935-14.0392-3.0003-27.2494-6.4214-40.5933-2.7957-10.9048-6.6492-21.581-8.0972-32.7883-3.4049-26.3522,4.2377-48.7282,24.3772-66.5578,7.2782-6.4434,14.9705-12.5733,19.4552-21.5782,3.3304-6.6874,7.1585-13.1612,10.0215-20.0396,5.3641-12.8874,15.2341-21.562,25.9018-29.7749,15.1773-11.6848,32.4194-19.014,50.4335-24.8934,13.3-4.3408,27.1741-5.1655,40.8935-6.9674,2.46-.3231,4.9734-.3418,7.3374-1.2382,2.3853,0,4.7707,0,7.1561,0Z"/>
      <path class="cls-1" d="M347.3232,210.2274c-5.885-17.1891-6.0542-35.1361-7.468-52.9037-.7462-9.3771-.371-18.8752-1.9177-28.1669-1.7154-10.3054-5.8442-19.9337-9.9465-29.4745-5.7439-13.3588-13.8653-24.7543-27.6237-31.0786-1.1673-.5366-2.2161-1.3538-3.2702-2.11-7.2254-5.1834-12.7678-12.0189-18.1324-18.9539-6.1698-7.9758-14.3773-13.5151-22.6653-18.7194-9.4792-5.9521-20.067-9.5231-31.1699-11.5826-10.2949-1.9096-20.2485-5.3013-30.7359-6.5905-8.7327-1.0736-17.26-.598-25.885,.4659-12.0196,1.4827-24.1185,2.5933-35.6718,6.4703-15.0107,5.0373-29.6441,10.9205-43.1273,19.4466-6.6594,4.2111-12.7629,8.8214-17.5912,15.158-6.3019,8.2704-10.5562,17.6479-15.0137,26.8971-4.6023,9.5491-9.7985,18.5419-17.9583,25.5803-4.5879,3.9574-9.1859,7.9675-13.2979,12.4005-13.5422,14.5992-18.3331,32.0801-15.8698,51.6015,1.4279,11.3159,5.3284,22.0872,8.1296,33.0967,3.4746,13.6562,6.9499,27.16,6.5944,41.5347-.2844,11.5054,3.3354,22.0352,13.3476,29.2669,1.3962,1.0084,2.5463,2.3514,3.8546,3.4885,7.5985,6.6033,11.3115,14.8931,11.9424,24.9821,.4879,7.8029-.0947,15.6022,.5942,23.3874,.8065,9.1151,5.6034,13.9499,14.7264,14.6774,3.1276,.2494,6.3383,.3134,9.3383,1.1115,4.9021,1.3041,9.462,3.049,12.1529,8.2011,5.7313,10.9734,5.7776,22.817,4.4249,34.3403-1.5763,13.4269-2.0051,26.7668-1.5793,40.2016,.2043,6.4489,1.2288,12.7193,4.6437,18.3811,2.9001,4.8084,7.6501,4.8339,10.3825-.1026,1.7431-3.1492,2.4736-6.6739,3.0323-10.2175,1.3735-8.7108,1.4828-17.4772,1.6823-26.265,0-5.4141-.2526-10.8428,.0597-16.2389,.4593-7.9367,3.1437-15.025,10.459-19.1091,7.5054-4.1903,17.2817-3.4092,19.1353,8.1945,1.0624,6.6509,1.8562,13.2883,1.6995,20.0408-.0929,4.0021,.5062,7.9341,1.2274,11.9093,1.165,6.4225,9.1105,7.2188,12.9721,3.1345,3.1932-3.3774,5.5687-7.0729,7.0186-11.5173,2.0115-6.1657,4.2195-12.2576,7.5766-17.8966,6.8096-11.4384,22.8657-13.4323,32.1019-3.9379,5.4003,5.5512,8.3608,12.3478,10.2111,19.6686,4.3767,17.317,6.2715,34.6656,1.5144,52.3438-1.8774,6.9769-2.5986,14.2829-2.3398,21.5967,.1418,4.0058,1.0777,5.2019,4.8812,6.1014,5.9783,1.4139,9.6821-.467,12.305-6.1263,3.1838-6.8694,3.6899-14.248,3.8438-21.6025,.3059-14.6251,.2374-29.2576,.4125-43.8859,.088-7.3445,1.6938-14.395,4.8041-21.0593,3.1152-6.6749,9.7386-7.3192,14.123-1.3588,1.6656,2.2642,3.2148,4.6388,4.5727,7.098,1.5206,2.754,4.1032,3.7072,6.7855,3.6682,2.2505-.0327,2.1572-2.7182,2.7476-4.3101,3.4391-9.2731,7.3599-18.1536,13.8313-25.9211,3.7263-4.4727,5.4438-10.2016,5.0404-16.4008-.6057-9.3071,2.8156-16.9296,10.4406-22.5096,1.7579-1.2864,3.2613-2.8046,4.6369-4.5099,4.975-6.1673,6.2905-13.6784,7.8686-21.0855,2.2729-10.6685,5.7437-20.7762,11.8885-29.9747,7.0345-10.5302,13.9644-21.1353,20.6012-31.9365,5.6772-9.2394,7.1096-18.8208,3.6592-28.8989Zm-130.4405-35.5341c4.0929-7.795,4.8301-15.6716,3.1506-24.2075-1.2159-6.1799-.9111-12.53,1.0267-18.639,1.088-3.4297,1.2861-6.6655-.3339-10.0608-1.6399-3.4368-2.5703-7.1044-2.0267-11.0285,1.0162-7.3363,8.8821-11.885,15.2793-8.2748,10.2975,5.8112,16.0632,14.7583,16.9269,26.237-.7635,6.8726-1.1553,13.2445-.947,19.6409,.0422,1.2974-.2151,2.6517,.0696,3.8868,2.3854,10.3491-1.3292,19.5579-5.7908,28.3737-3.9972,7.8981-4.7363,15.8447-2.8121,24.2505,1.0659,4.656,2.1635,9.3111,1.6779,14.1318-.4413,4.382-1.7408,8.1761-6.3665,10.0856-5.186,2.1407-10.0988,.5771-12.6215-4.426-1.8633-3.6956-3.1307-7.5847-3.7209-11.6994-.6788-4.7318-1.7279-9.4-3.9474-13.6591-4.3373-8.3226-3.7537-16.6326,.4357-24.6112Zm-92.9579-39.6069c-2.2597-6.794-.5317-13.7698,1.2415-20.4967,.6373-2.4177,.3537-4.4688-.7062-6.5436-2.5381-4.968-4.1524-10.2052-4.7985-15.75-.5878-5.0448,.2347-9.9758,4.6348-12.728,4.507-2.819,9.8594-3.388,14.9281-.8524,7.8487,3.9263,12.5831,13.4803,11.6696,24.187-.0736,3.9212-1.184,8.5389-3.0949,12.9467-1.0756,2.481-.8444,4.7781,.2275,7.1812,4.4318,9.9356,5.6062,20.2162,4.3652,31.0823-.9114,7.9807-2.5766,15.5372-6.1797,22.6982-1.307,2.5976-1.4359,5.3323-.5969,8.2005,1.0637,3.6361,1.8699,7.3501,1.9172,11.1766,.0767,6.195-3.1898,10.2123-9.2916,11.428-5.4999,1.0956-11.3622-1.8275-13.3864-6.8481-1.6765-4.1581-2.8169-8.4413-1.5685-12.9736,.3618-1.3137,.3114-2.5134-.3866-3.7433-5.7704-10.1677-6.0721-20.6725-1.173-31.1343,2.7283-5.826,4.3726-11.2933,2.1983-17.8304Zm192.4172,72.4742c-1.9897,1.3107-3.9545,2.7017-6.081,3.7518-2.744,1.355-3.5902,3.2963-3.6887,6.369-.4465,13.9402-5.3433,26.3204-14.8259,36.5026-5.3091,5.7009-12.1846,9.6776-18.7268,13.9174-3.5413,2.2949-7.2634,4.3186-10.7394,6.7045-6.0234,4.1345-8.4677,10.7936-11.5177,16.99-3.6314,7.3773-7.0412,14.869-10.8497,22.1528-6.1649,11.7903-18.8975,18.2209-31.9064,13.9258-5.0413-1.6646-10.3467-1.3803-15.46-.3559-10.6655,2.1368-19.8697-.7982-28.3153-7.2117-4.3054-3.2694-8.744-6.3678-13.1845-9.454-7.8542-5.459-16.8538-8.1818-25.8588-11.0397-14.099-4.4746-24.8454-12.9266-29.9478-27.3594-4.5393-12.8403-12.5562-22.9688-23.1198-31.4932-7.3511-5.9321-12.2849-13.7041-12.965-23.5256-.1858-2.6833-.0282-5.3904-.0282-8.4108-2.3408-.2056-5.0103-.403-7.6711-.6833-3.3044-.3481-5.2525-2.3958-5.0312-5.193,.2215-2.7995,2.4958-4.4276,5.7385-4.3417,8.906,.2357,17.6878,1.5031,26.4451,3.015,3.1981,.5521,5.189,2.8018,4.8093,5.4638-.3815,2.674-2.8615,4.4568-6.0378,4.0963-2.5605-.2906-5.0905-.8504-7.7585-1.3124-2.5201,8.1149,.4702,14.5779,5.4337,20.4354,2.664,3.1437,5.8407,5.7931,9.0342,8.397,8.6243,7.0319,14.3515,16.0945,18.4978,26.2848,1.383,3.399,2.4569,7.0375,4.4507,10.0516,4.7098,7.1201,11.1159,12.5377,19.3901,14.949,10.5483,3.074,20.9104,6.4341,30.0517,12.7227,4.365,3.0029,8.7098,6.0526,12.8831,9.3125,6.8963,5.3869,14.3709,7.4551,23.1125,5.6323,5.9639-1.2435,12.1927-1.186,18.0236,.7551,8.9795,2.9891,17.5044-1.8419,21.4145-9.972,4.3621-9.07,8.8845-18.0649,13.1198-27.1935,4.4825-9.6614,12.3269-15.7154,21.3433-20.593,6.2325-3.3715,11.7568-7.7608,17.1313-12.2752,7.3864-6.2045,10.5012-14.8873,12.7039-23.9474,.3057-1.2576,.4576-2.5532,.6579-3.8348,.0307-.1965-.063-.4125-.1335-.8165-2.0225,.5679-3.8582,1.3168-5.7589,1.5615-2.7211,.3503-4.6661-1.0016-5.3125-3.6855-.578-2.4001,.3936-4.4608,2.7015-5.2686,7.6836-2.6895,13.938-7.8189,20.8174-11.8768,.8395-.4952,1.6257-1.0996,2.5049-1.5053,2.5306-1.1677,5.1876-.3527,6.4843,1.9122,1.3127,2.2929,.6265,4.8281-1.8307,6.4467Z"/>
    </g>
  </g>
</svg>